<svg id="Layer_1" data-name="Layer 1" xmlns="http://www.w3.org/2000/svg" viewBox="0 0 921.79 285.59"><defs><style>.cls-1{fill:#fff;}</style></defs><title>ASTRONIFY_white</title><path class="cls-1" d="M542.6,91.51A91.59,91.59,0,0,0,386.26,153.6a2.65,2.65,0,0,0,.65.88c1.76,1.54,6.77,3.4,8.72,1.08,1.08-1.29,2.34-2.54,3.18-8.09.89-5.88,2.24-14.76,11-14.76,7.75,0,8.68,12.48,10.22,33.15.71,9.56,1.45,19.45,3,26.94,2,9.8,4.27,10.08,4.3,10.08.2,0,.46-.23.65-.42,7.37-7.52,6.46-52.75,6.12-69.78-.07-3.57-.13-6.4-.13-8.43,0-26.61,9.09-38.52,18.1-38.52,3,0,8.63,1.38,12.81,10.59,3,6.61,4.58,16,4.58,27.1,0,28,5.53,46.61,15.18,51,7.6,3.44,16.33-2.73,20.85-6.72l4.92,5.59c-10.14,8.92-20.38,11.74-28.84,7.91C465.42,173.86,462,145.73,462,123.42c0-12.72-2.13-20.09-3.92-24s-4-6.22-6-6.22c-4.3,0-10.65,9.88-10.65,31.08,0,2,.06,4.89.13,8.28.63,31.63.57,66.13-8.25,75.14a8.23,8.23,0,0,1-6,2.65c-11.42,0-12.94-20.35-14.7-43.91-.68-9.16-1.7-22.74-3.56-26.15-1.37.48-2.05,2.58-2.92,8.32S404,162.74,395.86,163a30.7,30.7,0,0,1-9.5-1.41A91.61,91.61,0,1,0,542.6,91.51Zm-47.12,45.7c.25.73.51,1.52.79,2.35,1.16,3.43,2.54,7.57,3.52,10.59.29.9.55,1.71.75,2.37.29.93.47,1.57.5,1.78a9.33,9.33,0,1,1-7.51-7.75l-7.19-22.69,3.39-1.07,15.56-4.93,3.39,10.69-14.58,4.62S494.67,134.82,495.48,137.21Zm53.8,39.37a9.3,9.3,0,0,1-8.78-16.39,9.19,9.19,0,0,1,2.9-1l-7.88-10.38-16.9,12.84s13,16.35,13.65,17.58A9.29,9.29,0,0,1,516.46,189a9.46,9.46,0,0,1-.57-.92,9.3,9.3,0,0,1,3.8-12.58,9.19,9.19,0,0,1,2.9-1l-9.1-12-5.31-7,2.83-2.15,30.39-23.09,6.78,8.93-9,6.87s13.26,16.7,13.92,17.92a9.29,9.29,0,0,1,.75,6.92A9.18,9.18,0,0,1,549.28,176.58Z"/><path class="cls-1" d="M43.5,222.21,70,73.53A5.56,5.56,0,0,1,75.46,69L106,68.83a5.55,5.55,0,0,1,5.48,4.52l28.2,148.46a5.56,5.56,0,0,1-5.44,6.6l-20.74.08a5.57,5.57,0,0,1-5.51-4.66l-4.1-24.91a5.57,5.57,0,0,0-5.51-4.66l-13.88.05A5.55,5.55,0,0,0,79.05,199l-3.83,24.92a5.56,5.56,0,0,1-5.47,4.71L49,228.74A5.56,5.56,0,0,1,43.5,222.21Zm45.66-48.62,4.33,0A5.56,5.56,0,0,0,99,167.22l-2.24-15.66c-.91-6.39-10.16-6.35-11,.05l-2.09,15.68A5.58,5.58,0,0,0,89.16,173.59Z"/><path class="cls-1" d="M136.41,179.66l21.07-3.11a5.54,5.54,0,0,1,6.35,5.09q.69,10.5,3.22,15.87,3.22,6.8,9.61,6.77,8.91,0,8.87-11.62a30.64,30.64,0,0,0-2.34-11.92,34.87,34.87,0,0,0-5.69-9.3,94.37,94.37,0,0,0-9.43-9l-13.92-12.21a112.17,112.17,0,0,1-9.08-8.08A62.48,62.48,0,0,1,138,133.4a36.47,36.47,0,0,1-5.13-11.23,53,53,0,0,1-1.7-13.61q-.07-20.1,12.08-31.11t33.41-11.2a52.32,52.32,0,0,1,13.24,1.5,36.44,36.44,0,0,1,10,4,28.35,28.35,0,0,1,7.21,6.33,38.41,38.41,0,0,1,5,7.65,48,48,0,0,1,3.08,8.62,65.4,65.4,0,0,1,1.71,8.78c.12,1,.23,2.1.34,3.2a5.56,5.56,0,0,1-4.82,6L192.33,115a5.58,5.58,0,0,1-6.27-5.24c0-.24,0-.46,0-.68q-.15-2.65-.55-5.65a22.86,22.86,0,0,0-1.07-4.82,15.06,15.06,0,0,0-1.79-3.42,6.16,6.16,0,0,0-2.79-2.26,9.48,9.48,0,0,0-4-.56,8.1,8.1,0,0,0-7,3.94,15.51,15.51,0,0,0-2.41,8.55,29,29,0,0,0,1.13,8.25,21.46,21.46,0,0,0,3.86,7.18,63.34,63.34,0,0,0,4.48,5.2c1.16,1.15,3.08,3,5.77,5.38l13.85,11.92a112.31,112.31,0,0,1,9.85,9.57,79.26,79.26,0,0,1,7.82,10.4,46.87,46.87,0,0,1,5.65,12.82,57.75,57.75,0,0,1,2,15q.06,17.1-11.6,28.41t-30.69,11.38q-23.26.09-34.69-11.83-10.26-10.7-12.13-32.88A5.62,5.62,0,0,1,136.41,179.66Z"/><path class="cls-1" d="M212.2,88.82l-.06-15a5.56,5.56,0,0,1,5.54-5.58L290.83,68a5.56,5.56,0,0,1,5.58,5.54l.06,15a5.56,5.56,0,0,1-5.54,5.58l-13.25,0a5.56,5.56,0,0,0-5.54,5.58l.47,122.47a5.56,5.56,0,0,1-5.54,5.58l-24.13.09a5.56,5.56,0,0,1-5.58-5.54l-.47-122.47a5.56,5.56,0,0,0-5.58-5.54l-13.54,0A5.54,5.54,0,0,1,212.2,88.82Z"/><path class="cls-1" d="M291.29,222l-.58-148.57a5.56,5.56,0,0,1,5.54-5.58l37.67-.15a121.2,121.2,0,0,1,17.79,1.09,59.15,59.15,0,0,1,14.55,4,32.49,32.49,0,0,1,11.22,7.59,33,33,0,0,1,6.93,12.15A54.75,54.75,0,0,1,387,109.94q.06,15.65-4,25.17a28.3,28.3,0,0,1-11.19,12.75,5.62,5.62,0,0,0-2.45,6.37l20,65.8a5.56,5.56,0,0,1-5.3,7.18l-25.63.1a5.57,5.57,0,0,1-5.42-4.21l-15.7-62.93a5.57,5.57,0,0,0-5.42-4.21h0a5.56,5.56,0,0,0-5.54,5.58l.23,60.34a5.56,5.56,0,0,1-5.54,5.58l-24.13.09A5.54,5.54,0,0,1,291.29,222Zm34.89-91.82a5.56,5.56,0,0,0,5.58,5.54h3.49q10.78,0,15.2-5.63t4.37-16.84q0-11.06-4.06-16.37t-13.84-5.28l-5.32,0a5.56,5.56,0,0,0-5.54,5.58Z"/><path class="cls-1" d="M576,221.12l-.58-148.57A5.56,5.56,0,0,1,581,67l17.3-.07a5.56,5.56,0,0,1,5.12,3.34l21.18,48.53a5.56,5.56,0,0,0,10.66-2.25l-.17-44.2a5.56,5.56,0,0,1,5.54-5.58l21-.08a5.56,5.56,0,0,1,5.58,5.54l.58,148.57a5.56,5.56,0,0,1-5.54,5.58l-16.93.07a5.56,5.56,0,0,1-5.17-3.46l-21.46-52.55A5.56,5.56,0,0,0,608,172.53l.19,48.46a5.56,5.56,0,0,1-5.54,5.58l-21,.08A5.55,5.55,0,0,1,576,221.12Z"/><path class="cls-1" d="M679.22,220.69l-.58-148.57a5.56,5.56,0,0,1,5.54-5.58l24.13-.09A5.56,5.56,0,0,1,713.89,72l.58,148.57a5.56,5.56,0,0,1-5.54,5.58l-24.13.09A5.56,5.56,0,0,1,679.22,220.69Z"/><path class="cls-1" d="M725.42,220.46,724.85,71.9a5.56,5.56,0,0,1,5.54-5.58l58-.22A5.56,5.56,0,0,1,794,71.64l0,12.77A5.56,5.56,0,0,1,788.51,90l-22.78.09a5.56,5.56,0,0,0-5.54,5.58l.11,29.23a5.56,5.56,0,0,0,5.58,5.54l18.06-.07a5.56,5.56,0,0,1,5.58,5.54l.05,13.44a5.56,5.56,0,0,1-5.54,5.58L766,155a5.56,5.56,0,0,0-5.54,5.58l.23,59.77a5.56,5.56,0,0,1-5.54,5.58L731,226A5.58,5.58,0,0,1,725.42,220.46Z"/><path class="cls-1" d="M785.66,66l20.54-.08a5.56,5.56,0,0,1,5.32,3.87l9.19,28.89a5.56,5.56,0,0,0,10.65-.19l8-28.67a5.57,5.57,0,0,1,5.33-4.06l20.36-.08a5.57,5.57,0,0,1,5.33,7.23l-27.15,86.42A5.73,5.73,0,0,0,843,161l.23,58.88a5.56,5.56,0,0,1-5.54,5.58l-24.13.09A5.56,5.56,0,0,1,808,220l-.23-58.9a5.47,5.47,0,0,0-.26-1.65L780.36,73.22A5.56,5.56,0,0,1,785.66,66Z"/></svg>