<?xml version="1.0" encoding="utf-8"?>
<!-- Generator: Adobe Illustrator 24.1.2, SVG Export Plug-In . SVG Version: 6.00 Build 0)  -->
<svg version="1.1" id="Layer_1" xmlns="http://www.w3.org/2000/svg" xmlns:xlink="http://www.w3.org/1999/xlink" x="0px" y="0px"
	 viewBox="0 0 921.79 726.85" style="enable-background:new 0 0 921.79 726.85;" xml:space="preserve">
<style type="text/css">
	.st0{fill:#03495F;}
</style>
<g>
	<path class="st0" d="M577.58,371.57c-67.15-67.15-176.03-67.15-243.19,0c-32.29,32.29-49.05,74.23-50.28,116.53
		c0.31,0.62,0.71,1.18,1.26,1.66c3.31,2.9,12.7,6.39,16.36,2.03c2.03-2.42,4.39-4.77,5.97-15.18c1.67-11.03,4.2-27.71,20.71-27.71
		c14.55,0,16.29,23.42,19.19,62.23c1.34,17.95,2.72,36.51,5.59,50.57c3.74,18.4,8.02,18.91,8.06,18.91c0.38,0,0.87-0.43,1.22-0.79
		c13.84-14.12,12.13-99.01,11.49-130.96c-0.13-6.71-0.24-12.01-0.24-15.83c0-49.94,17.06-72.3,33.97-72.3
		c5.61,0,16.19,2.58,24.04,19.87c5.63,12.4,8.6,29.99,8.6,50.86c0,52.61,10.38,87.48,28.49,95.67c14.27,6.46,30.65-5.13,39.14-12.61
		l9.23,10.49c-19.03,16.75-38.25,22.03-54.12,14.85c-30.33-13.71-36.7-66.51-36.7-108.39c0-23.88-4-37.7-7.35-45.09
		c-3.32-7.31-7.55-11.67-11.32-11.67c-8.06,0-20,18.54-20,58.33c0,3.68,0.11,9.18,0.24,15.55c1.19,59.37,1.08,124.13-15.48,141.02
		c-4.03,4.11-8.32,4.98-11.2,4.98c-21.43,0-24.28-38.19-27.58-82.41c-1.28-17.19-3.19-42.67-6.67-49.08
		c-2.58,0.91-3.85,4.84-5.48,15.61c-1.6,10.57-4.02,26.55-19.33,27.05c-4.69,0.17-12.09-0.75-17.85-2.65
		c2.34,40.64,19.02,80.61,50.07,111.66c67.15,67.15,176.03,67.15,243.19,0C644.74,547.6,644.74,438.72,577.58,371.57z
		 M489.15,457.35c0.46,1.36,0.96,2.85,1.49,4.41c2.17,6.45,4.77,14.2,6.61,19.88c0.55,1.69,1.03,3.21,1.41,4.44
		c0.54,1.75,0.89,2.95,0.95,3.34c1.42,9.53-5.14,18.4-14.67,19.83c-3.84,0.57-7.58-0.15-10.77-1.85c-4.71-2.51-8.21-7.14-9.06-12.82
		c-1.42-9.53,5.14-18.4,14.67-19.83c1.96-0.29,3.89-0.23,5.73,0.11l-13.49-42.59l6.37-2.02l29.2-9.25l6.36,20.06l-27.37,8.67
		C486.57,449.74,487.63,452.86,489.15,457.35z M590.12,531.24c-8.49,4.54-19.06,1.35-23.6-7.14c-2.22-4.15-2.59-8.79-1.4-12.98
		c1.25-4.39,4.2-8.3,8.55-10.62c1.75-0.94,3.58-1.53,5.44-1.83l-14.8-19.47l-31.71,24.1c0,0,24.4,30.69,25.63,32.99
		c2.22,4.15,2.59,8.79,1.4,12.98c-1.25,4.39-4.2,8.3-8.55,10.62c-7.89,4.22-17.56,1.76-22.54-5.42c-0.38-0.55-0.74-1.12-1.07-1.72
		c-2.22-4.15-2.59-8.79-1.4-12.98c1.25-4.39,4.2-8.3,8.55-10.62c1.75-0.94,3.58-1.53,5.44-1.83l-17.07-22.47l-9.96-13.11l5.32-4.04
		l57.04-43.35l12.73,16.76l-16.96,12.89c0,0,24.89,31.34,26.13,33.64c2.22,4.15,2.59,8.79,1.4,12.98
		C597.43,525.01,594.47,528.91,590.12,531.24z"/>
</g>
<g>
	<path class="st0" d="M542.6,91.51c-35.78-35.78-93.79-35.78-129.57,0c-17.2,17.2-26.11,39.55-26.77,62.09
		c0.16,0.33,0.36,0.63,0.65,0.88c1.76,1.54,6.77,3.4,8.72,1.08c1.08-1.29,2.34-2.54,3.18-8.09c0.89-5.88,2.24-14.76,11.03-14.76
		c7.75,0,8.68,12.48,10.22,33.15c0.71,9.56,1.45,19.45,2.98,26.94c2,9.8,4.27,10.08,4.3,10.08c0.2,0,0.46-0.23,0.65-0.42
		c7.37-7.52,6.46-52.75,6.12-69.78c-0.07-3.57-0.13-6.4-0.13-8.43c0-26.61,9.09-38.52,18.1-38.52c2.99,0,8.63,1.38,12.81,10.59
		c3,6.61,4.58,15.98,4.58,27.1c0,28.03,5.53,46.61,15.18,50.97c7.6,3.44,16.33-2.73,20.85-6.72l4.92,5.59
		c-10.14,8.92-20.38,11.74-28.84,7.91c-16.16-7.31-19.55-35.44-19.55-57.75c0-12.72-2.13-20.09-3.92-24.02
		c-1.77-3.89-4.02-6.22-6.03-6.22c-4.3,0-10.65,9.88-10.65,31.08c0,1.96,0.06,4.89,0.13,8.28c0.63,31.63,0.57,66.13-8.25,75.14
		c-2.15,2.19-4.43,2.65-5.97,2.65c-11.42,0-12.94-20.35-14.7-43.91c-0.68-9.16-1.7-22.74-3.56-26.15c-1.37,0.48-2.05,2.58-2.92,8.32
		c-0.85,5.63-2.14,14.15-10.3,14.41c-2.5,0.09-6.43-0.4-9.5-1.41c1.25,21.65,10.12,42.95,26.67,59.49
		c35.78,35.78,93.79,35.78,129.57,0S578.38,127.29,542.6,91.51z M495.48,137.21c0.25,0.73,0.51,1.52,0.79,2.35
		c1.16,3.43,2.54,7.57,3.52,10.59c0.29,0.9,0.55,1.71,0.75,2.37c0.29,0.93,0.47,1.57,0.5,1.78c0.76,5.08-2.74,9.8-7.82,10.56
		c-2.05,0.31-4.04-0.08-5.74-0.98c-2.51-1.34-4.37-3.8-4.83-6.83c-0.76-5.08,2.74-9.8,7.82-10.56c1.04-0.16,2.07-0.12,3.06,0.06
		l-7.19-22.69l3.39-1.07l15.56-4.93l3.39,10.69l-14.58,4.62C494.1,133.16,494.67,134.82,495.48,137.21z M549.28,176.58
		c-4.52,2.42-10.15,0.72-12.58-3.81c-1.18-2.21-1.38-4.68-0.75-6.92c0.66-2.34,2.24-4.42,4.55-5.66c0.93-0.5,1.91-0.81,2.9-0.97
		l-7.88-10.38l-16.9,12.84c0,0,13,16.35,13.65,17.58c1.18,2.21,1.38,4.68,0.75,6.92c-0.66,2.34-2.24,4.42-4.55,5.66
		c-4.2,2.25-9.35,0.94-12.01-2.89c-0.2-0.29-0.4-0.6-0.57-0.92c-1.18-2.21-1.38-4.68-0.75-6.92c0.66-2.34,2.24-4.42,4.55-5.66
		c0.93-0.5,1.91-0.81,2.9-0.97l-9.1-11.97l-5.31-6.98l2.83-2.15l30.39-23.09l6.78,8.93l-9.04,6.87c0,0,13.26,16.7,13.92,17.92
		c1.18,2.21,1.38,4.68,0.75,6.92C553.17,173.26,551.59,175.34,549.28,176.58z"/>
</g>
<g>
	<path class="st0" d="M43.5,222.21L70.01,73.53c0.47-2.64,2.77-4.57,5.45-4.58l30.56-0.12c2.68-0.01,4.98,1.89,5.48,4.52
		l28.2,148.46c0.65,3.42-1.96,6.58-5.44,6.6l-20.74,0.08c-2.73,0.01-5.06-1.96-5.51-4.66l-4.1-24.91c-0.44-2.69-2.78-4.67-5.51-4.66
		l-13.88,0.05c-2.74,0.01-5.06,2.01-5.47,4.71l-3.83,24.92c-0.42,2.7-2.74,4.7-5.47,4.71L49,228.74
		C45.53,228.76,42.89,225.62,43.5,222.21z M89.16,173.59l4.33-0.02c3.38-0.01,5.96-3.01,5.48-6.35l-2.24-15.66
		c-0.91-6.39-10.16-6.35-11.02,0.05l-2.09,15.68C83.19,170.64,85.79,173.6,89.16,173.59z"/>
	<path class="st0" d="M136.41,179.66l21.07-3.11c3.19-0.47,6.14,1.87,6.35,5.09c0.46,7,1.53,12.29,3.22,15.87
		c2.15,4.53,5.35,6.79,9.61,6.77c5.94-0.02,8.9-3.9,8.87-11.62c-0.02-4.31-0.8-8.28-2.34-11.92c-1.55-3.63-3.45-6.73-5.69-9.3
		c-2.25-2.57-5.39-5.58-9.43-9.04l-13.92-12.21c-3.64-2.95-6.67-5.64-9.08-8.08c-2.41-2.44-4.77-5.34-7.07-8.71
		c-2.31-3.37-4.02-7.11-5.13-11.23c-1.11-4.12-1.68-8.65-1.7-13.61c-0.05-13.4,3.97-23.76,12.08-31.11
		c8.11-7.34,19.24-11.08,33.41-11.2c4.86-0.02,9.27,0.48,13.24,1.5c3.97,1.02,7.32,2.36,10.05,4.04c2.73,1.67,5.13,3.78,7.21,6.33
		c2.08,2.55,3.73,5.1,4.95,7.65c1.22,2.55,2.25,5.43,3.08,8.62c0.83,3.2,1.4,6.12,1.71,8.78c0.12,1.04,0.23,2.1,0.34,3.2
		c0.28,2.97-1.86,5.63-4.82,6.02l-20.09,2.61c-3.21,0.42-6.1-2.01-6.27-5.24c-0.01-0.24-0.03-0.46-0.04-0.68
		c-0.1-1.77-0.28-3.65-0.55-5.65c-0.26-1.99-0.62-3.6-1.07-4.82c-0.45-1.22-1.05-2.36-1.79-3.42c-0.74-1.06-1.67-1.81-2.79-2.26
		c-1.12-0.45-2.45-0.63-3.98-0.56c-3.07,0.08-5.41,1.39-7.03,3.94c-1.62,2.55-2.42,5.4-2.41,8.55c0.01,3.03,0.39,5.78,1.13,8.25
		c0.74,2.48,2.03,4.87,3.86,7.18c1.83,2.31,3.32,4.04,4.48,5.2c1.16,1.15,3.08,2.95,5.77,5.38l13.85,11.92
		c3.83,3.33,7.11,6.52,9.85,9.57c2.74,3.05,5.34,6.51,7.82,10.4c2.48,3.88,4.36,8.16,5.65,12.82c1.28,4.66,1.93,9.67,1.96,15.01
		c0.04,11.4-3.82,20.87-11.6,28.41c-7.78,7.54-18,11.33-30.69,11.38c-15.51,0.06-27.07-3.88-34.69-11.83
		c-6.84-7.13-10.88-18.09-12.13-32.88C131.43,182.72,133.51,180.08,136.41,179.66z"/>
	<path class="st0" d="M212.2,88.82l-0.06-14.98c-0.01-3.07,2.47-5.57,5.54-5.58l73.15-0.28c3.07-0.01,5.57,2.47,5.58,5.54
		l0.06,14.98c0.01,3.07-2.47,5.57-5.54,5.58l-13.25,0.05c-3.07,0.01-5.55,2.51-5.54,5.58l0.47,122.47c0.01,3.07-2.47,5.57-5.54,5.58
		l-24.13,0.09c-3.07,0.01-5.57-2.47-5.58-5.54l-0.47-122.47c-0.01-3.07-2.51-5.55-5.58-5.54l-13.54,0.05
		C214.71,94.37,212.21,91.89,212.2,88.82z"/>
	<path class="st0" d="M291.29,222.02l-0.58-148.57c-0.01-3.07,2.47-5.57,5.54-5.58l37.67-0.15c6.69-0.03,12.62,0.34,17.79,1.09
		c5.17,0.75,10.02,2.09,14.55,4c4.53,1.92,8.28,4.45,11.22,7.59c2.94,3.15,5.26,7.2,6.93,12.15c1.68,4.96,2.53,10.75,2.55,17.39
		c0.04,10.43-1.31,18.83-4.05,25.17c-2.24,5.18-5.97,9.43-11.19,12.75c-2.15,1.36-3.19,3.94-2.45,6.37l20.02,65.8
		c1.08,3.56-1.57,7.16-5.3,7.18l-25.63,0.1c-2.56,0.01-4.8-1.73-5.42-4.21l-15.7-62.93c-0.62-2.48-2.86-4.22-5.42-4.21h0
		c-3.07,0.01-5.55,2.51-5.54,5.58l0.23,60.34c0.01,3.07-2.47,5.57-5.54,5.58l-24.13,0.09C293.8,227.57,291.3,225.09,291.29,222.02z
		 M326.18,130.2c0.01,3.07,2.51,5.55,5.58,5.54l3.49-0.01c7.19-0.03,12.26-1.9,15.2-5.63c2.94-3.73,4.39-9.34,4.37-16.84
		c-0.03-7.37-1.38-12.82-4.06-16.37c-2.68-3.55-7.29-5.31-13.84-5.28l-5.32,0.02c-3.07,0.01-5.55,2.51-5.54,5.58L326.18,130.2z"/>
	<path class="st0" d="M576.03,221.12l-0.58-148.57c-0.01-3.07,2.47-5.57,5.54-5.58l17.3-0.07c2.22-0.01,4.23,1.3,5.12,3.34
		l21.18,48.53c2.41,5.53,10.68,3.79,10.66-2.25l-0.17-44.2c-0.01-3.07,2.47-5.57,5.54-5.58l21.05-0.08
		c3.07-0.01,5.57,2.47,5.58,5.54l0.58,148.57c0.01,3.07-2.47,5.57-5.54,5.58l-16.93,0.07c-2.27,0.01-4.31-1.36-5.17-3.46
		l-21.46-52.55c-2.31-5.66-10.73-3.99-10.71,2.12l0.19,48.46c0.01,3.07-2.47,5.57-5.54,5.58l-21.05,0.08
		C578.54,226.67,576.04,224.19,576.03,221.12z"/>
	<path class="st0" d="M679.22,220.69l-0.58-148.57c-0.01-3.07,2.47-5.57,5.54-5.58l24.13-0.09c3.07-0.01,5.57,2.47,5.58,5.54
		l0.58,148.57c0.01,3.07-2.47,5.57-5.54,5.58l-24.13,0.09C681.73,226.24,679.23,223.76,679.22,220.69z"/>
	<path class="st0" d="M725.42,220.46L724.85,71.9c-0.01-3.07,2.47-5.57,5.54-5.58l58.03-0.22c3.07-0.01,5.57,2.47,5.58,5.54
		l0.05,12.77c0.01,3.07-2.47,5.57-5.54,5.58l-22.78,0.09c-3.07,0.01-5.55,2.51-5.54,5.58l0.11,29.23c0.01,3.07,2.51,5.55,5.58,5.54
		l18.06-0.07c3.07-0.01,5.57,2.47,5.58,5.54l0.05,13.44c0.01,3.07-2.47,5.57-5.54,5.58l-18.06,0.07c-3.07,0.01-5.55,2.51-5.54,5.58
		l0.23,59.77c0.01,3.07-2.47,5.57-5.54,5.58L731.01,226C727.94,226.01,725.44,223.53,725.42,220.46z"/>
	<path class="st0" d="M785.66,66.01l20.54-0.08c2.43-0.01,4.58,1.56,5.32,3.87l9.19,28.89c1.67,5.26,9.16,5.13,10.65-0.19
		l8.03-28.67c0.67-2.39,2.85-4.05,5.33-4.06l20.36-0.08c3.76-0.01,6.45,3.64,5.33,7.23l-27.15,86.42c-0.17,0.55-0.26,1.12-0.26,1.69
		l0.23,58.88c0.01,3.07-2.47,5.57-5.54,5.58l-24.13,0.09c-3.07,0.01-5.57-2.47-5.58-5.54l-0.23-58.9c0-0.56-0.09-1.11-0.26-1.65
		l-27.13-86.27C779.25,69.66,781.91,66.02,785.66,66.01z"/>
</g>
</svg>
