<?xml version="1.0" encoding="utf-8"?>
<!-- Generator: Adobe Illustrator 25.3.1, SVG Export Plug-In . SVG Version: 6.00 Build 0)  -->
<svg version="1.1" id="Layer_1" xmlns="http://www.w3.org/2000/svg" xmlns:xlink="http://www.w3.org/1999/xlink" x="0px" y="0px"
	 viewBox="0 0 183.2 183.2" style="enable-background:new 0 0 183.2 183.2;" xml:space="preserve">
<style type="text/css">
	.st0{fill:#FFFFFF;}
</style>
<path class="st0" d="M156.3,26.9C120.6-8.9,62.6-9,26.8,26.8C10.3,43.3,0.7,65.6,0,88.9c0.2,0.3,0.4,0.6,0.6,0.9
	c1.8,1.5,6.8,3.4,8.7,1.1c1.1-1.3,2.3-2.5,3.2-8.1c0.9-5.9,2.2-14.8,11-14.8c7.8,0,8.7,12.5,10.2,33.1c0.7,9.6,1.5,19.4,3,26.9
	c2,9.8,4.3,10.1,4.3,10.1c0.2,0,0.5-0.2,0.6-0.4c7.4-7.5,6.5-52.8,6.1-69.8c-0.1-3.6-0.1-6.4-0.1-8.4c0-26.6,9.1-38.5,18.1-38.5
	c3,0,8.6,1.4,12.8,10.6c3,6.6,4.6,16,4.6,27.1c0,28,5.5,46.6,15.2,51c7.6,3.4,16.3-2.7,20.9-6.7l4.9,5.6
	c-10.1,8.9-20.4,11.7-28.8,7.9c-16.1-7.3-19.6-35.5-19.6-57.8c0-12.7-2.1-20.1-3.9-24s-4-6.2-6-6.2c-4.3,0-10.6,9.9-10.6,31.1
	c0,2,0.1,4.9,0.1,8.3C55.9,99.5,55.9,134,47,143c-1.5,1.7-3.7,2.6-6,2.6c-11.4,0-12.9-20.4-14.7-43.9c-0.7-9.2-1.7-22.7-3.6-26.1
	c-1.4,0.5-2,2.6-2.9,8.3S17.7,98.1,9.6,98.3c-3.2,0-6.4-0.4-9.5-1.4C3,147.4,46.4,186,96.9,183.1s89.1-46.3,86.1-96.8
	C181.7,63.9,172.2,42.7,156.3,26.9z M109.2,72.6c0.2,0.7,0.5,1.5,0.8,2.4c1.2,3.4,2.5,7.6,3.5,10.6c0.3,0.9,0.5,1.7,0.8,2.4
	c0.3,0.9,0.5,1.6,0.5,1.8c0.8,5.1-2.7,9.9-7.8,10.6c-5.1,0.8-9.9-2.7-10.6-7.8s2.7-9.9,7.8-10.6c1-0.2,2.1-0.1,3.1,0l-7.2-22.7
	l3.4-1.1l15.6-4.9l3.4,10.7l-14.6,4.6C107.8,68.5,108.4,70.2,109.2,72.6L109.2,72.6z M163,111.9c-4.6,2.3-10.2,0.5-12.5-4.1
	c-2.2-4.4-0.6-9.8,3.7-12.3c0.9-0.5,1.9-0.8,2.9-1l-7.9-10.4L132.4,97c0,0,13,16.4,13.7,17.6c2.7,4.4,1.3,10.1-3,12.8
	c-4.4,2.7-10.1,1.3-12.8-3c-0.2-0.3-0.4-0.6-0.6-0.9c-2.4-4.5-0.7-10.2,3.8-12.6c0.9-0.5,1.9-0.8,2.9-1l-9.1-12l-5.3-7l2.8-2.1
	l30.4-23.1l6.8,8.9l-9,6.9c0,0,13.3,16.7,13.9,17.9c1.1,2.1,1.4,4.6,0.8,6.9C166.9,108.7,165.3,110.7,163,111.9L163,111.9z"/>
</svg>
